<svg xmlns:inkscape="http://www.inkscape.org/namespaces/inkscape" xmlns:sodipodi="http://sodipodi.sourceforge.net/DTD/sodipodi-0.dtd" xmlns="http://www.w3.org/2000/svg" xmlns:svg="http://www.w3.org/2000/svg" xmlns:rdf="http://www.w3.org/1999/02/22-rdf-syntax-ns#" xmlns:cc="http://creativecommons.org/ns#" xmlns:dc="http://purl.org/dc/elements/1.1/" viewBox="0 0 16.933333 21.1666675" version="1.1" x="0px" y="0px"><g><path style="color:#000000;" d="m 14.147054,2.8051884 a 0.26457947,0.26457947 0 0 0 -0.37455,0.0011 l -1.17111,1.171114 a 0.26457947,0.26457947 0 0 0 3.7e-4,0.373077 0.26457947,0.26457947 0 0 0 0.37416,0.0015 l 1.17112,-1.171113 a 0.26457947,0.26457947 0 0 0 1e-5,-0.375629 z M 9.5228942,0.89084736 a 0.26457947,0.26457947 0 0 0 -0.18746,-0.0771 0.26457947,0.26457947 0 0 0 -0.26346,0.26345504 l -3.7e-4,1.657094 a 0.26457947,0.26457947 0 0 0 0.26382,0.263818 0.26457947,0.26457947 0 0 0 0.26529,-0.265282 l -3.6e-4,-1.654172 a 0.26457947,0.26457947 0 0 0 -0.0775,-0.18781304 z M 16.062124,7.4300784 a 0.26457947,0.26457947 0 0 0 -0.18746,-0.0771 l -1.65417,-3.62e-4 a 0.26457947,0.26457947 0 0 0 -0.26528,0.265282 0.26457947,0.26457947 0 0 0 0.26382,0.263817 l 1.65709,-3.68e-4 a 0.26457947,0.26457947 0 0 0 0.26346,-0.263455 0.26457947,0.26457947 0 0 0 -0.0775,-0.187813 z m -3.8919,-2.638571 a 0.26457422,0.26463751 44.126424 0 0 -0.27186,-0.06577 l -2.4671898,0.832388 -2.08426,-1.559538 a 0.26457422,0.26463751 44.126424 0 0 -0.42313,0.214854 l 0.0289,2.602027 -2.12956,1.501802 a 0.26457422,0.26463751 44.126424 0 0 0.0745,0.467716 l 2.484,0.776843 0.76917,2.4880216 a 0.26457422,0.26463751 44.126424 0 0 0.46881,0.07418 l 1.5080198,-2.123354 2.60276,0.03837 a 0.26457422,0.26463751 44.126424 0 0 0.21485,-0.4231376 l -1.55222,-2.090096 0.84042,-2.463546 a 0.26457422,0.26463751 44.126424 0 0 -0.0632,-0.270762 z M 4.8998242,2.8048204 a 0.26457947,0.26457947 0 0 0 -0.37455,0.0011 0.26457947,0.26457947 0 0 0 0,0.373443 l 1.17112,1.171114 a 0.26457947,0.26457947 0 0 0 0.37308,-3.66e-4 0.26457947,0.26457947 0 0 0 10e-4,-0.374172 z m 8.0775598,8.0775746 a 0.26457947,0.26457947 0 0 0 -0.37563,-2e-6 0.26457947,0.26457947 0 0 0 10e-4,0.374539 l 1.16965,1.16965 a 0.26457947,0.26457947 0 0 0 0.37454,0.0011 0.26457947,0.26457947 0 0 0 -10e-4,-0.374174 z M 6.9471642,9.9992184 a 0.26460593,0.26460593 0 0 0 -0.10852,-0.06541 l -0.80097,-0.251397 a 0.26460593,0.26460593 0 0 0 -0.26675,0.06504 l -4.6859,4.6859146 c -0.38527003,0.38515 -0.38977003,1.016306 -0.005,1.400591 0.38431,0.384329 1.01507,0.379278 1.40021,-0.0059 l 4.6998,-4.6998 a 0.26460593,0.26460593 0 0 0 0.0661,-0.264916 l -0.23312,-0.755649 a 0.26460593,0.26460593 0 0 0 -0.0654,-0.1085256 z" fill="#7402ff" stroke-width="0.999985" stroke-linecap="round" stroke-linejoin="round"/></g><text x="0" y="31.933334" fill="#7402ff" font-size="5px" font-weight="bold" font-family="'Helvetica Neue', Helvetica, Arial-Unicode, Arial, Sans-serif">Created by Larea</text><text x="0" y="36.933334" fill="#000000" font-size="5px" font-weight="bold" font-family="'Helvetica Neue', Helvetica, Arial-Unicode, Arial, Sans-serif">from the Noun Project</text></svg>