<?xml version="1.0" encoding="UTF-8"?>
<svg id="Layer_1" data-name="Layer 1" xmlns="http://www.w3.org/2000/svg" viewBox="0 0 755.91 573.18">
  <defs>
    <style>
      .cls-1 {
        fill: #cbcbcb;
      }

      .cls-1, .cls-2, .cls-3, .cls-4, .cls-5, .cls-6, .cls-7, .cls-8, .cls-9, .cls-10 {
        stroke-width: 0px;
      }

      .cls-2 {
        fill: #e2bfc6;
      }

      .cls-3 {
        fill: #dcdce2;
      }

      .cls-4 {
        fill: #f1f1f1;
      }

      .cls-5 {
        fill: #fff;
      }

      .cls-6 {
        fill: #ffe19f;
      }

      .cls-7 {
        fill: #ffd04d;
      }

      .cls-8 {
        fill: #e5e5e5;
      }

      .cls-9 {
        fill: #f4f4f4;
      }

      .cls-10 {
        fill: #00edff;
      }
    </style>
  </defs>
  <path class="cls-4" d="M705.68,573.18v-72.34s28.19,51.29,0,72.34Z"/>
  <path class="cls-4" d="M707.42,573.17l-53.29-48.92s56.85,13.92,53.29,48.92Z"/>
  <g>
    <circle id="a0c15788-f4f4-4acc-aa12-f27a30ea141c" class="cls-4" cx="102.06" cy="269.49" r="11.02"/>
    <circle id="e9b5f50e-78d4-4cc2-9ed2-81635f80ef66" class="cls-4" cx="74.06" cy="297.49" r="11.02"/>
    <circle id="b8afa681-60ae-40dd-b0dc-0ba40dd0fb25" class="cls-4" cx="203.43" cy="456.26" r="11.02"/>
    <polygon class="cls-2" points="580.07 549.39 568.09 549.39 567.4 503.89 580.07 503.17 580.07 549.39"/>
    <path class="cls-7" d="M583.14,561.02h-38.66v-.5c0-8.31,6.74-15.04,15.05-15.05h23.61v15.55Z"/>
    <polygon class="cls-2" points="648.67 535.59 637.68 540.38 618.87 498.94 630.2 493.22 648.67 535.59"/>
    <path class="cls-7" d="M620.69,560.47l-.2-.46c-3.32-7.62.16-16.49,7.78-19.81,0,0,0,0,0,0l21.64-9.44,6.21,14.26-35.44,15.45Z"/>
    <circle class="cls-2" cx="601.36" cy="164.24" r="25.97"/>
    <polygon class="cls-3" points="647.84 513.87 614.28 431.88 630.58 355.17 599.66 353.5 582.64 439.31 625.55 524.41 647.84 513.87"/>
    <polygon class="cls-9" points="611.16 339.83 595.34 437.88 590.59 531.85 563.28 531.61 562.26 351.82 611.16 339.83"/>
    <polygon class="cls-1" points="632.87 345.42 631.31 359.62 553.89 363.09 559.14 341.73 632.87 345.42"/>
    <path class="cls-2" d="M559.25,372.23c-3.09-3.89-2.44-9.55,1.45-12.64.03-.02.05-.04.08-.06.39-.31.81-.58,1.25-.82l30.37-114.11,18,7.91-35.67,110.27c1.75,3.8.65,8.31-2.65,10.88-3.95,3.12-9.66,2.48-12.83-1.43Z"/>
    <path class="cls-7" d="M578.44,215.2l3.58-7.4s17.63-15.24,36.23-6.11l2.87,8.54,15.17,24.5-3.43,113.15s-63.29-4.81-78.98.92l6.9-89.66,17.66-43.94Z"/>
    <path class="cls-1" d="M581.74,358.8l-26.72-7.47,24.71-77.24,2.24-43.12c.26-4.4,2.38-8.49,5.82-11.25,4.15-3.36,9.51-4.84,14.8-4.08,8.73,1.2,15.16,7.87,15.27,15.88v.04s0,.04,0,.04l-8.58,60.44-2.75,9.84-24.78,56.93Z"/>
    <path class="cls-6" d="M613.13,184.59l5.91,1.49,8.96-9.52s16.46-38.19-19.92-44.03-28.44,8.91-33.31,18.16l14.87,3.87,13.38,13.68s8.73-6.4,11.3-.59-1.19,16.95-1.19,16.95Z"/>
    <path class="cls-5" d="M406.09,406.09H0V0h406.09v406.09Z"/>
    <path class="cls-5" d="M406.09,406.09H0V0h406.09v406.09ZM6,400.09h394.09V6H6v394.09Z"/>
    <rect class="cls-10" x="83.73" y="174.57" width="260.44" height="9.19"/>
    <rect class="cls-10" x="83.73" y="198.48" width="260.44" height="9.19"/>
    <rect class="cls-10" x="83.73" y="222.38" width="260.44" height="9.19"/>
    <circle class="cls-10" cx="67.92" cy="180.52" r="6"/>
    <rect class="cls-8" x="83.73" y="71.57" width="260.44" height="9.19"/>
    <rect class="cls-8" x="83.73" y="95.48" width="260.44" height="9.19"/>
    <rect class="cls-8" x="83.73" y="119.38" width="260.44" height="9.19"/>
    <circle class="cls-8" cx="67.92" cy="76.52" r="6"/>
    <rect class="cls-8" x="83.73" y="278.57" width="260.44" height="9.19"/>
    <rect class="cls-8" x="83.73" y="302.48" width="260.44" height="9.19"/>
    <rect class="cls-8" x="83.73" y="326.38" width="260.44" height="9.19"/>
    <circle class="cls-8" cx="67.92" cy="283.52" r="6"/>
  </g>
  <path class="cls-1" d="M754.91,572.93h-299c-.55,0-1-.45-1-1s.45-1,1-1h299c.55,0,1,.45,1,1s-.45,1-1,1Z"/>
</svg>